Coordinates
version=1
nRows=9
nColumns=24
inDegrees=yes

Units are S.I. units (second, meters, Newtons, ...)
Angles are in degrees.

endheader
time	pelvis_tilt	pelvis_list	pelvis_rotation	pelvis_tx	pelvis_ty	pelvis_tz	hip_flexion_r	hip_adduction_r	hip_rotation_r	knee_angle_r	ankle_angle_r	subtalar_angle_r	mtp_angle_r	hip_flexion_l	hip_adduction_l	hip_rotation_l	knee_angle_l	ankle_angle_l	subtalar_angle_l	mtp_angle_l	lumbar_extension	lumbar_bending	lumbar_rotation
      2.09000000	     60.45818437	     -1.25983342	     -5.07882556	      0.83006171	      1.06266776	     -0.23007011	     19.01253948	     -5.04783665	      1.70878863	    -15.54559125	     -3.25692208	     14.84130250	      0.00000000	      9.21596581	     -4.21044892	     -8.57579526	    -64.99200704	     -1.39917755	     -3.00770823	      0.00000000	      0.00000000	      0.00000000	      0.00000000
      2.10000000	     60.45712125	     -1.26564500	     -5.07818188	      0.83004694	      1.06267322	     -0.23007472	     18.99674140	     -5.04177637	      1.68959717	    -15.60541993	     -3.22720004	     14.85992027	      0.00000000	      9.21547278	     -4.21587862	     -8.56822412	    -64.99034701	     -1.39890928	     -2.99244171	      0.00000000	      0.00000000	      0.00000000	      0.00000000
      2.11000000	     60.45513115	     -1.27379778	     -5.07259920	      0.83003419	      1.06268026	     -0.23008097	     18.97950513	     -5.03657825	      1.64432463	    -15.69738638	     -3.19913124	     14.84770058	      0.00000000	      9.21528675	     -4.22256415	     -8.55654445	    -64.98872837	     -1.39630464	     -2.97049907	      0.00000000	      0.00000000	      0.00000000	      0.00000000
      2.12000000	     60.45293916	     -1.28276740	     -5.06359701	      0.83002207	      1.06269558	     -0.23008857	     18.96218591	     -5.03558664	      1.56453093	    -15.83875973	     -3.16307389	     14.79795928	      0.00000000	      9.21497813	     -4.22899713	     -8.54300943	    -64.98743887	     -1.39021111	     -2.94451401	      0.00000000	      0.00000000	      0.00000000	      0.00000000
      2.13000000	     60.45148382	     -1.28980061	     -5.05538796	      0.83000813	      1.06272380	     -0.23010277	     18.94458396	     -5.04214059	      1.44514932	    -16.04907412	     -3.09901255	     14.71304182	      0.00000000	      9.21435087	     -4.23375201	     -8.53042454	    -64.98642348	     -1.38026050	     -2.91947007	      0.00000000	      0.00000000	      0.00000000	      0.00000000
      2.14000000	     60.45159066	     -1.29218912	     -5.05296490	      0.82998875	      1.06275993	     -0.23012702	     18.92463880	     -5.05828571	      1.28854758	    -16.34766629	     -2.97555408	     14.60908677	      0.00000000	      9.21318931	     -4.23546516	     -8.52164038	    -64.98521740	     -1.36773115	     -2.90226772	      0.00000000	      0.00000000	      0.00000000	      0.00000000
      2.15000000	     60.45368148	     -1.28896549	     -5.05920371	      0.82996611	      1.06278781	     -0.23015316	     18.89901331	     -5.08391793	      1.10818059	    -16.75021643	     -2.75160228	     14.51936071	      0.00000000	      9.21058912	     -4.23296679	     -8.51889183	    -64.98309059	     -1.35634796	     -2.90021313	      0.00000000	      0.00000000	      0.00000000	      0.00000000
      2.16000000	     60.45760077	     -1.28150640	     -5.07305249	      0.82995139	      1.06279682	     -0.23016547	     18.86342340	     -5.11688053	      0.92983154	    -17.26570810	     -2.38149876	     14.49447567	      0.00000000	      9.20509543	     -4.22640509	     -8.52285229	    -64.97914237	     -1.35250041	     -2.91852953	      0.00000000	      0.00000000	      0.00000000	      0.00000000
      2.17000000	     60.46252967	     -1.27291270	     -5.08981015	      0.82995554	      1.06279447	     -0.23015458	     18.81239751	     -5.15375799	      0.78878259	    -17.89530788	     -1.82375834	     14.59799446	      0.00000000	      9.19589112	     -4.21863453	     -8.53194139	    -64.97231232	     -1.36421819	     -2.95754266	      0.00000000	      0.00000000	      0.00000000	      0.00000000
